<mxfile host="65bd71144e">
    <diagram id="-Rwz9Fdb1J4oEMUwfGD2" name="Page-1">
        <mxGraphModel dx="792" dy="471" grid="1" gridSize="10" guides="1" tooltips="1" connect="1" arrows="1" fold="1" page="1" pageScale="1" pageWidth="850" pageHeight="1100" math="0" shadow="0">
            <root>
                <mxCell id="0"/>
                <mxCell id="1" parent="0"/>
                <mxCell id="2" value="USER&lt;br&gt;- username&lt;br&gt;- password" style="rounded=1;whiteSpace=wrap;html=1;" vertex="1" parent="1">
                    <mxGeometry x="160" y="170" width="120" height="60" as="geometry"/>
                </mxCell>
                <mxCell id="8" style="edgeStyle=none;html=1;entryX=1;entryY=0.75;entryDx=0;entryDy=0;" edge="1" parent="1" source="3" target="4">
                    <mxGeometry relative="1" as="geometry"/>
                </mxCell>
                <mxCell id="3" value="SUBJECT&lt;br&gt;- subjectName" style="rounded=1;whiteSpace=wrap;html=1;" vertex="1" parent="1">
                    <mxGeometry x="640" y="365" width="120" height="60" as="geometry"/>
                </mxCell>
                <mxCell id="6" style="edgeStyle=none;html=1;entryX=1.004;entryY=0.221;entryDx=0;entryDy=0;entryPerimeter=0;" edge="1" parent="1" source="4" target="5">
                    <mxGeometry relative="1" as="geometry"/>
                </mxCell>
                <mxCell id="4" value="STUDENTS&lt;br&gt;- studentName&lt;br&gt;- address&lt;br&gt;- phone&lt;br&gt;- subjectId" style="rounded=1;whiteSpace=wrap;html=1;" vertex="1" parent="1">
                    <mxGeometry x="440" y="130" width="120" height="120" as="geometry"/>
                </mxCell>
                <mxCell id="5" value="DAILY PROGRESS&lt;br&gt;- student_Id&lt;br&gt;- daily_attandance (bool)&lt;br&gt;- coming_late (bool)&lt;br&gt;- late_reason&lt;br&gt;- onLeave (bool)&lt;br&gt;- leave_reason&lt;br&gt;- daily_homework (bool)&lt;br&gt;- homework_remaks" style="rounded=1;whiteSpace=wrap;html=1;" vertex="1" parent="1">
                    <mxGeometry x="120" y="300" width="200" height="190" as="geometry"/>
                </mxCell>
                <mxCell id="9" value="AUTH" style="text;html=1;align=center;verticalAlign=middle;resizable=0;points=[];autosize=1;strokeColor=none;fillColor=none;" vertex="1" parent="1">
                    <mxGeometry x="190" y="140" width="60" height="30" as="geometry"/>
                </mxCell>
            </root>
        </mxGraphModel>
    </diagram>
</mxfile>